<svg width="14" height="14" viewBox="0 0 14 14" fill="none" xmlns="http://www.w3.org/2000/svg">
<path d="M7 14C5.05556 14 3.40278 13.3194 2.04167 11.9583C0.680556 10.5972 0 8.94444 0 7C0 5.05556 0.680556 3.40278 2.04167 2.04167C3.40278 0.680556 5.05556 0 7 0C7.18148 0 7.35972 0.00648148 7.53472 0.0194444C7.70972 0.0324074 7.88148 0.0518519 8.05 0.0777778C7.51852 0.453704 7.09398 0.943056 6.77639 1.54583C6.4588 2.14861 6.3 2.8 6.3 3.5C6.3 4.66667 6.70833 5.65833 7.525 6.475C8.34167 7.29167 9.33333 7.7 10.5 7.7C11.213 7.7 11.8676 7.5412 12.4639 7.22361C13.0602 6.90602 13.5463 6.48148 13.9222 5.95C13.9481 6.11852 13.9676 6.29028 13.9806 6.46528C13.9935 6.64028 14 6.81852 14 7C14 8.94444 13.3194 10.5972 11.9583 11.9583C10.5972 13.3194 8.94444 14 7 14ZM7 12.4444C8.14074 12.4444 9.16481 12.1301 10.0722 11.5014C10.9796 10.8727 11.6407 10.0528 12.0556 9.04167C11.7963 9.10648 11.537 9.15833 11.2778 9.19722C11.0185 9.23611 10.7593 9.25556 10.5 9.25556C8.90556 9.25556 7.54769 8.69491 6.42639 7.57361C5.30509 6.45232 4.74444 5.09444 4.74444 3.5C4.74444 3.24074 4.76389 2.98148 4.80278 2.72222C4.84167 2.46296 4.89352 2.2037 4.95833 1.94444C3.94722 2.35926 3.12731 3.02037 2.49861 3.92778C1.86991 4.83519 1.55556 5.85926 1.55556 7C1.55556 8.5037 2.08704 9.78704 3.15 10.85C4.21296 11.913 5.4963 12.4444 7 12.4444Z" fill="#EBEBEB"/>
</svg>
