<svg width="23" height="23" viewBox="0 0 23 23" fill="none" xmlns="http://www.w3.org/2000/svg">
<path fill-rule="evenodd" clip-rule="evenodd" d="M9.02255 1.33399C9.2656 1.92078 8.98696 2.59349 8.40017 2.83654L7.61237 3.16286L6.90055 3.53341L6.22372 3.9646L5.58706 4.45313L4.99539 4.99529L4.45323 5.58696L3.9647 6.22362L3.53351 6.90045L3.16296 7.61227L2.85585 8.35369L2.61454 9.11905L2.44084 9.90253L2.3361 10.6982L2.30109 11.4999L2.3361 12.3016L2.44084 13.0973L2.61454 13.8808L2.85585 14.6461L3.16296 15.3875L3.53351 16.0993L3.9647 16.7762L4.45322 17.4128L4.99539 18.0045L5.58706 18.5467L6.22372 19.0352L6.90055 19.4664L7.61237 19.8369L8.40018 20.1633C8.98696 20.4063 9.2656 21.079 9.02255 21.6658C8.7795 22.2526 8.10678 22.5312 7.52 22.2882L6.63942 21.9234L5.74945 21.4601L4.90324 20.921L4.10724 20.3102L3.36749 19.6324L2.68965 18.8927L2.07885 18.0967L1.53976 17.2504L1.07646 16.3605L0.692503 15.4335L0.390791 14.4766L0.173629 13.497L0.0426661 12.5023L-0.00109863 11.4999L0.0426661 10.4975L0.173629 9.50275L0.390791 8.5232L0.692503 7.56629L1.07646 6.63933L1.53976 5.74935L2.07885 4.90314L2.68965 4.10714L3.36749 3.3674L4.10724 2.68955L4.90324 2.07875L5.74945 1.53966L6.63942 1.07637L7.52 0.711619C8.10678 0.468566 8.7795 0.747213 9.02255 1.33399Z" fill="white"/>
<path fill-rule="evenodd" clip-rule="evenodd" d="M11.2619 1.03933C11.3448 0.409638 11.9225 -0.0336253 12.5522 0.0492756L13.4972 0.173685L14.4767 0.390847L15.4336 0.692558L16.3606 1.07652L17.2506 1.53981L18.0968 2.07891L18.8928 2.6897L19.6325 3.36755L20.3104 4.10729L20.9212 4.9033L21.4603 5.74951L21.9236 6.63948L22.3075 7.56644L22.6092 8.52335L22.8264 9.50291L22.9573 10.4977L23.0011 11.5001L22.9573 12.5024L22.8264 13.4972L22.6092 14.4768L22.3075 15.4337L21.9236 16.3606L21.4603 17.2506L20.9212 18.0968L20.3104 18.8928L19.6325 19.6326L18.8928 20.3104L18.0968 20.9212L17.2506 21.4603L16.3606 21.9236L15.4336 22.3075L14.4767 22.6093L13.4972 22.8264L12.5522 22.9508C11.9225 23.0337 11.3448 22.5905 11.2619 21.9608C11.179 21.3311 11.6223 20.7534 12.252 20.6705L13.0974 20.5592L13.8809 20.3855L14.6462 20.1442L15.3877 19.8371L16.0995 19.4665L16.7763 19.0354L17.413 18.5468L18.0046 18.0047L18.5468 17.413L19.0353 16.7763L19.4665 16.0995L19.8371 15.3877L20.1442 14.6463L20.3855 13.8809L20.5592 13.0974L20.6639 12.3018L20.6989 11.5001L20.6639 10.6983L20.5592 9.90268L20.3855 9.1192L20.1442 8.35384L19.8371 7.61243L19.4665 6.9006L19.0353 6.22378L18.5468 5.58711L18.0046 4.99544L17.413 4.45328L16.7763 3.96475L16.0995 3.53357L15.3876 3.16301L14.6462 2.85591L13.8809 2.61459L13.0974 2.4409L12.252 2.3296C11.6223 2.2467 11.179 1.66903 11.2619 1.03933Z" fill="#F23541"/>
</svg>
