<svg width="14" height="14" viewBox="0 0 14 14" fill="none" xmlns="http://www.w3.org/2000/svg">
<path d="M6.36364 2.54545V0H7.63636V2.54545H6.36364ZM10.5955 4.29545L9.72045 3.42045L11.5023 1.59091L12.3932 2.49773L10.5955 4.29545ZM11.4545 7.63636V6.36364H14V7.63636H11.4545ZM6.36364 14V11.4545H7.63636V14H6.36364ZM3.40455 4.26364L1.59091 2.49773L2.49773 1.60682L4.29545 3.40455L3.40455 4.26364ZM11.4864 12.4091L9.72045 10.5795L10.5795 9.72045L12.3932 11.4705L11.4864 12.4091ZM0 7.63636V6.36364H2.54545V7.63636H0ZM2.49773 12.4091L1.60682 11.5023L3.38864 9.72045L3.85 10.15L4.31136 10.5955L2.49773 12.4091ZM7 10.8182C5.93939 10.8182 5.03788 10.447 4.29545 9.70455C3.55303 8.96212 3.18182 8.06061 3.18182 7C3.18182 5.93939 3.55303 5.03788 4.29545 4.29545C5.03788 3.55303 5.93939 3.18182 7 3.18182C8.06061 3.18182 8.96212 3.55303 9.70455 4.29545C10.447 5.03788 10.8182 5.93939 10.8182 7C10.8182 8.06061 10.447 8.96212 9.70455 9.70455C8.96212 10.447 8.06061 10.8182 7 10.8182ZM7 9.54545C7.7 9.54545 8.29924 9.29621 8.79773 8.79773C9.29621 8.29924 9.54545 7.7 9.54545 7C9.54545 6.3 9.29621 5.70076 8.79773 5.20227C8.29924 4.70379 7.7 4.45455 7 4.45455C6.3 4.45455 5.70076 4.70379 5.20227 5.20227C4.70379 5.70076 4.45455 6.3 4.45455 7C4.45455 7.7 4.70379 8.29924 5.20227 8.79773C5.70076 9.29621 6.3 9.54545 7 9.54545Z" fill="#F23541"/>
</svg>
